PathFileType	4	(X/Y/Z)	..\data\2014014\dynamic\2014014_C4_04.trc
DataRate	CameraRate	NumFrames	NumMarkers	Units	OrigDataRate	OrigDataStartFrame	OrigNumFrames
100.000000	100.000000	4	52	mm	100.000000	22	178
Frame#	Time	L_IAS			L_IPS			R_IPS			R_IAS			L_FTC			L_FLE			L_FME			L_FAX			L_TTC			L_FAL			L_TAM			L_FCC			L_FM1			L_FM2			L_FM5			R_FTC			R_FLE			R_FME			R_FAX			R_TTC			R_FAL			R_TAM			R_FCC			R_FM1			R_FM2			R_FM5			CV7			TV10			SXS			SJN			L_SIA			L_SRS			L_SAA			L_SAE			L_HLE			L_HME			L_UOA			L_RSP			L_UHE			L_HM2			L_HM5			R_SIA			R_SRS			R_SAA			R_SAE			R_HLE			R_HME			R_UOA			R_RSP			R_UHE			R_HM2			R_HM5			
		X1	Y1	Z1	X2	Y2	Z2	X3	Y3	Z3	X4	Y4	Z4	X5	Y5	Z5	X6	Y6	Z6	X7	Y7	Z7	X8	Y8	Z8	X9	Y9	Z9	X10	Y10	Z10	X11	Y11	Z11	X12	Y12	Z12	X13	Y13	Z13	X14	Y14	Z14	X15	Y15	Z15	X16	Y16	Z16	X17	Y17	Z17	X18	Y18	Z18	X19	Y19	Z19	X20	Y20	Z20	X21	Y21	Z21	X22	Y22	Z22	X23	Y23	Z23	X24	Y24	Z24	X25	Y25	Z25	X26	Y26	Z26	X27	Y27	Z27	X28	Y28	Z28	X29	Y29	Z29	X30	Y30	Z30	X31	Y31	Z31	X32	Y32	Z32	X33	Y33	Z33	X34	Y34	Z34	X35	Y35	Z35	X36	Y36	Z36	X37	Y37	Z37	X38	Y38	Z38	X39	Y39	Z39	X40	Y40	Z40	X41	Y41	Z41	X42	Y42	Z42	X43	Y43	Z43	X44	Y44	Z44	X45	Y45	Z45	X46	Y46	Z46	X47	Y47	Z47	X48	Y48	Z48	X49	Y49	Z49	X50	Y50	Z50	X51	Y51	Z51	X52	Y52	Z52	

23	0.22	206.5957489013672	1002.796569824219	-349.2952270507813	-6.701594829559328	1010.424011230469	-281.2657470703126	-8.877059936523439	997.7537841796877	-177.0587310791016	190.310302734375	979.4429321289065	-97.35804748535159	140.4017028808594	908.4295043945315	-426.0622558593751	199.5428771972657	497.9115600585939	-357.0648803710938	192.3385467529297	497.2518310546876	-220.1602172851563	188.1065368652344	434.5004882812501	-356.8384399414063	254.2353820800782	434.1050109863282	-301.8988647460938	207.8523712158204	62.78714752197267	-309.2387390136719	224.6800994873047	99.10192871093753	-213.8557128906251	152.9712829589844	20.053861618042	-252.2442474365235	352.3022460937501	23.66644096374512	-205.7545928955079	369.7028503417969	38.95288848876954	-263.7106933593751	318.9191284179688	17.2484188079834	-324.3662109375001	117.2335739135742	869.725769042969	-42.75571441650391	102.4900054931641	464.8667602539064	-59.31209945678712	148.18896484375	452.2371520996095	-184.8361511230469	54.39158248901369	437.314178466797	-56.71922302246095	105.3397979736328	386.0748901367189	-101.858268737793	-239.111557006836	216.5973205566407	-105.75244140625	-189.8302001953125	208.2781677246094	-196.4651489257813	-283.5629272460938	231.6067352294922	-172.5079956054688	-194.2833099365235	60.57124328613283	-204.6481475830079	-182.6651611328125	66.40621948242189	-147.5942077636719	-221.6254577636719	83.18003845214845	-93.55966186523439	42.24816894531251	1530.221801757813	-229.7129974365235	-52.23812484741212	1284.921875	-223.5932922363282	220.0025177001954	1255.244384765625	-227.7040405273438	168.7067108154297	1436.355346679688	-225.4939270019532	-75.88286590576173	1312.747802734375	-331.1048278808594	-29.97827148437501	1452.665771484375	-338.9872436523438	9.909296035766603	1448.120849609375	-405.0629272460939	56.09932327270509	1442.771240234375	-432.3650817871095	37.47090911865235	1101.160522460938	-512.4912109375001	2.411731719970704	1095.311279296875	-425.4491271972657	-2.291971921920777	1084.936889648438	-483.0677490234376	104.0784301757813	837.8499755859377	-468.2077941894532	34.64507675170899	845.9747314453127	-523.1683349609376	120.7870025634766	749.0186157226564	-482.5996398925782	18.74581909179688	763.1634521484376	-526.3057861328126	-62.02144241333009	1315.135375976563	-98.06050872802737	-7.680442333221437	1457.3681640625	-90.70194244384767	40.76771545410157	1442.984375	-25.00518798828126	91.35057830810548	1438.468383789063	-10.92258739471436	106.8919525146485	1104.905517578125	80.92050933837892	82.80509185791017	1085.305786132813	-16.72654914855957	66.48223876953126	1078.804809570313	50.66873931884767	236.1801757812501	867.4957275390627	38.60293197631837	168.3052825927735	863.8943481445315	100.0489349365235	285.3666992187501	788.849060058594	70.1519012451172	180.0628204345703	765.0479125976564	102.9037475585938	
24	0.23	217.0502319335938	1003.410400390625	-350.2019042968751	3.85434913635254	1011.50634765625	-282.0509948730469	1.367542505264282	998.5295410156252	-178.1628112792969	200.5065155029297	980.5064697265627	-98.07923126220706	149.4906921386719	908.8715820312502	-426.9494934082032	202.8806762695313	497.8851928710939	-357.5056762695313	196.5672760009766	497.3179626464845	-220.5821228027344	190.5690460205078	434.6089172363282	-357.1448974609376	257.3241577148438	433.5205383300782	-302.7080993652344	207.5166778564454	62.78332901000978	-309.2236022949219	224.8854980468751	99.15998077392581	-213.9060363769532	152.8295440673828	19.97904586791993	-252.2145690917969	352.1090393066407	23.75129699707032	-205.7138824462891	369.7237243652344	38.91613388061524	-263.5759582519532	318.9112243652344	17.33488464355469	-324.3961181640626	128.5898895263672	870.4221801757815	-43.82371520996094	126.1473541259766	465.4307556152345	-58.08876800537111	171.2184448242188	453.5923767089845	-184.17529296875	78.60396575927736	438.4979248046876	-55.27152252197267	128.539794921875	387.0750122070314	-101.6959686279297	-219.227035522461	224.7024841308594	-105.3230209350586	-170.6256256103516	215.6757202148438	-196.5878906250001	-264.1502685546876	240.3109436035157	-171.872543334961	-176.9244537353516	66.84787750244142	-202.8888397216797	-165.265869140625	72.78099822998048	-146.2765655517578	-203.5250091552735	91.85438537597658	-92.32118988037111	52.89321136474611	1531.363037109375	-231.0797576904297	-41.68443298339844	1286.048461914063	-224.8960723876954	230.598617553711	1256.275268554688	-228.2148742675782	179.3433380126953	1437.416748046875	-226.3708038330079	-64.76354980468751	1313.68994140625	-332.7091369628907	-18.90740966796875	1453.636474609375	-340.5736389160157	21.22864151000977	1448.945434570313	-406.5096435546876	67.5891799926758	1443.520263671875	-433.5903930664064	51.92419052124025	1101.613037109375	-514.3243408203126	16.18277931213379	1095.234252929688	-427.6299743652345	12.189847946167	1084.685180664063	-485.3028564453126	123.114242553711	839.4060668945315	-469.0551757812501	53.96383285522462	846.1561279296877	-524.4801025390626	142.0525970458985	751.3497924804689	-483.7331848144532	39.82663345336915	763.0354003906251	-527.4894409179689	-51.80641555786134	1316.308837890625	-99.58808898925784	2.58136796951294	1458.672607421875	-92.05773925781251	50.97356414794923	1444.2900390625	-26.24217414855958	101.4975280761719	1439.714477539063	-12.00220680236817	115.8550643920899	1105.846923828125	79.10274505615236	91.75827026367189	1086.6533203125	-18.53094482421875	75.41741180419923	1080.183959960938	48.67659378051759	242.0942535400391	866.7207031250002	36.54467773437501	174.4756774902344	864.0747680664065	98.33062744140628	289.7347412109376	786.575378417969	67.0933074951172	184.386962890625	765.0693359375001	100.8078765869141	
25	0.24	227.3796997070313	1003.908020019531	-351.0835266113282	14.27060604095459	1012.565063476563	-282.7987976074219	11.55055141448975	999.377136230469	-179.2157135009766	210.6473236083985	981.7100830078127	-98.69731903076175	158.4759216308594	909.1928710937502	-427.7329711914064	205.8486785888672	497.8366699218751	-357.8513793945313	200.5361022949219	497.3484802246095	-220.8944244384766	192.6607971191407	434.7034606933595	-357.3646240234376	260.0902404785157	432.939422607422	-303.5163879394532	207.1226196289063	62.74035263061525	-309.2596130371094	225.0445709228516	99.19849395751956	-214.0028686523438	152.6129913330078	19.91090965270996	-252.1693725585938	351.9075317382813	23.88560867309571	-205.7152099609376	369.6208190917969	38.82797241210938	-263.4671936035157	318.8596801757813	17.28048896789551	-324.4103698730469	139.8314666748047	871.3902587890627	-44.76192855834962	149.5296783447266	466.5541992187501	-57.168025970459	193.8872680664063	455.6031799316407	-183.8493804931641	102.4903335571289	440.1021423339845	-54.20883560180665	151.6750183105469	388.6303100585939	-101.7579650878907	-198.5801544189454	231.7962493896485	-105.0334548950196	-150.5389709472657	222.3581848144532	-196.7710266113282	-244.0287780761719	247.5420684814454	-171.4332427978516	-157.1856384277344	72.72476196289064	-201.1783447265626	-145.5990600585938	79.04768371582033	-144.9246826171875	-183.4646606445313	99.72502136230472	-91.14987182617189	63.4723472595215	1532.488403320313	-232.3595733642579	-31.23930931091309	1287.173706054688	-226.1931457519532	241.0564117431641	1257.245483398438	-228.6649169921876	189.8794860839844	1438.4267578125	-227.1492004394532	-53.7182960510254	1314.674072265625	-334.3174133300782	-7.894096851348879	1454.651123046875	-342.1287536621094	32.50470352172852	1449.8203125	-407.9087829589845	79.05580902099611	1444.291870117188	-434.7584533691407	66.41267395019533	1102.130737304688	-516.1375732421876	29.96944427490235	1095.163330078125	-429.831024169922	26.7129020690918	1084.459594726563	-487.5426635742189	142.2586212158203	841.1295166015627	-469.822723388672	73.43595123291017	846.4605102539065	-525.7074584960939	163.5449676513672	753.9677734375001	-484.8422851562501	61.17763519287111	763.0512695312501	-528.6235351562501	-41.7997055053711	1317.412841796875	-101.2065582275391	12.681791305542	1459.916625976563	-93.39583587646486	60.95584869384767	1445.499755859375	-27.42394638061524	111.4051895141602	1440.848388671875	-13.00394630432129	124.649528503418	1106.702270507813	77.37045288085939	100.6163177490235	1087.819580078125	-20.23682975769043	84.22713470458986	1081.425048828125	46.79574584960938	247.9742126464844	865.9562988281252	34.45759582519532	180.730224609375	864.2317504882815	96.67680358886722	294.0576477050782	784.3090820312502	63.94462966918947	188.843734741211	765.1105957031251	98.78083801269534	
26	0.25	237.5918579101563	1004.336791992188	-351.9671936035157	24.56938362121583	1013.606018066406	-283.4961242675782	21.70867156982422	1000.30859375	-180.176742553711	220.7862701416016	983.069274902344	-99.26532745361331	167.387435913086	909.414245605469	-428.4066467285157	208.5633544921876	497.7970581054689	-358.0969543457032	204.3209228515626	497.3750000000001	-221.0948028564454	194.511703491211	434.8155822753907	-357.4947509765626	262.6254577636719	432.3885498046876	-304.2922058105469	206.6986083984376	62.67710113525392	-309.3420410156251	225.1690673828126	99.22270965576175	-214.1419372558594	152.3497009277344	19.85374832153321	-252.120101928711	351.7043457031251	24.05147361755372	-205.7548522949219	369.4227905273438	38.69504547119141	-263.3882446289063	318.7757263183594	17.11718177795411	-324.4239501953126	151.0402221679688	872.6452636718752	-45.57352447509766	172.5698547363282	468.2153930664064	-56.53020095825197	216.1829223632813	458.2102661132814	-183.7967529296875	125.9540252685547	442.1032714843751	-53.51264572143556	174.6876373291016	390.715057373047	-101.9818878173828	-177.2408447265625	237.7149505615235	-104.8704376220703	-129.6240539550782	228.1486053466797	-196.9857177734376	-223.2598419189454	253.1735076904297	-171.1811828613282	-135.2335815429688	78.00300598144533	-199.5934448242188	-123.8112945556641	84.97312927246095	-143.6012573242188	-161.5908813476563	106.5469360351563	-90.10231781005861	73.98526763916017	1533.599609375	-233.549789428711	-20.89053726196289	1288.294189453125	-227.4726104736329	251.3861083984376	1258.181396484375	-229.0755310058594	200.3185119628907	1439.40380859375	-227.8383789062501	-42.75050354003907	1315.71533203125	-335.9352416992188	3.048614263534547	1455.713745117188	-343.6405029296876	43.72163009643555	1450.76123046875	-409.2537231445314	90.47997283935548	1445.115600585938	-435.8655700683595	80.94831848144533	1102.751342773438	-517.9115600585939	43.7949562072754	1095.143188476563	-432.0232543945314	41.2877426147461	1084.306030273438	-489.7586059570314	161.4735565185547	843.0535888671877	-470.4931640625001	93.02842712402345	846.944763183594	-526.8408203125001	185.1880798339844	756.8912353515626	-485.8994445800782	82.74348449707033	763.2786865234376	-529.7126464843751	-31.97475242614747	1318.46435546875	-102.8793106079102	22.62703132629395	1461.10888671875	-94.71026611328126	70.73213958740236	1446.631469726563	-28.55057907104493	121.0894546508789	1441.8955078125	-13.93221187591553	133.2545471191407	1107.503784179688	75.71520233154298	109.3748550415039	1088.848876953125	-21.86496162414551	92.88945770263673	1082.565063476563	45.00969314575196	253.8261108398438	865.2385864257815	32.34764099121094	187.0525207519532	864.3938598632815	95.07474517822267	298.3636779785157	782.1068115234377	60.75302505493165	193.4438171386719	765.1976928710939	96.83172607421878	
